# xmcd CD database file
#
# Track frame offsets:
#	150
#	18992
#	67283
#	78512
#	98893
#	143676
#	175947
#
# Disc length: 2784 seconds
#
# Revision: 2
# Processed by: cddbd v1.5.1PL2 Copyright (c) Steve Scherf et al.
# Submitted via: CDex 1.51
#
DISCID=5a0ade07
DTITLE=Peter Janson - Beautiful Day
DYEAR=2006
DGENRE=New Age
TTITLE0=Mantra For Mikea
TTITLE1=Spirit Dances
TTITLE2=Beautiful Day
TTITLE3=Waterfall
TTITLE4=December Morning Sun
TTITLE5=Welcome Guests
TTITLE6=Dragonfly
EXTD=YEAR: 2006
EXTT0=
EXTT1=
EXTT2=
EXTT3=
EXTT4=
EXTT5=
EXTT6=
PLAYORDER=
